<svg width="64" height="61" viewBox="0 0 64 61" fill="none" xmlns="http://www.w3.org/2000/svg">
<path d="M46 26.6875V32.4062C46 35.9452 44.525 39.3393 41.8995 41.8417C39.274 44.3441 35.713 45.75 32 45.75C28.287 45.75 24.726 44.3441 22.1005 41.8417C19.475 39.3393 18 35.9452 18 32.4062V26.6875H14V32.4062C14.0021 36.6249 15.6349 40.6949 18.5864 43.8386C21.538 46.9824 25.6013 48.9794 30 49.4481V53.375H22V57.1875H42V53.375H34V49.4481C38.3987 48.9794 42.462 46.9824 45.4136 43.8386C48.3651 40.6949 49.9979 36.6249 50 32.4062V26.6875H46Z" fill="black"/>
<path d="M32 41.9375C34.6522 41.9375 37.1957 40.9333 39.0711 39.1459C40.9464 37.3584 42 34.9341 42 32.4062V13.3438C42 10.8159 40.9464 8.39159 39.0711 6.60414C37.1957 4.81668 34.6522 3.8125 32 3.8125C29.3478 3.8125 26.8043 4.81668 24.9289 6.60414C23.0536 8.39159 22 10.8159 22 13.3438V32.4062C22 34.9341 23.0536 37.3584 24.9289 39.1459C26.8043 40.9333 29.3478 41.9375 32 41.9375Z" fill="black"/>
</svg>
