<svg width="249" height="245" viewBox="0 0 249 245" fill="none" xmlns="http://www.w3.org/2000/svg">
<g clip-path="url(#clip0_30_171)">
<path d="M60.3045 105.633C61.3582 105.633 62.5335 105.792 63.8304 106.111C65.1273 106.43 66.4241 106.869 67.721 107.427C69.0179 107.985 70.3148 108.504 71.6116 108.982C72.9085 109.461 74.0838 109.939 75.1375 110.418L73.1922 110.657C72.5438 110.737 71.8548 110.777 71.1253 110.777C69.7474 110.777 68.491 110.577 67.3563 110.178C66.2215 109.78 65.1678 109.261 64.1951 108.623C63.2225 107.985 62.2498 107.507 61.2772 107.188C60.3045 106.869 59.4129 106.629 58.6024 106.47C57.7918 106.47 57.0623 106.629 56.4139 106.948C55.7654 107.267 55.117 107.626 54.4686 108.025C54.4686 107.706 54.1849 107.547 53.6175 107.547C54.1849 106.988 55.2386 106.55 56.7786 106.231C58.3187 105.912 59.494 105.712 60.3045 105.633ZM76.7181 111.016C80.0413 111.016 83.0809 111.574 85.8367 112.691C84.702 113.089 83.5672 113.408 82.4324 113.648C81.2977 113.887 80.1224 114.046 78.9066 114.126C77.2855 114.126 75.8265 113.967 74.5296 113.648C74.9349 113.01 75.3401 112.611 75.7454 112.451C76.1507 112.292 76.4749 111.813 76.7181 111.016ZM124.5 0.000198756C135.929 0.000198756 146.911 1.47562 157.449 4.42647C167.986 7.37732 177.874 11.4846 187.115 16.7482C196.355 22.0119 204.784 28.432 212.404 36.0085C220.023 43.585 226.507 51.8394 231.857 60.7717C237.206 69.704 241.421 79.4338 244.501 89.9611C247.581 100.488 249.081 111.335 249 122.5C249 133.745 247.5 144.552 244.501 154.92C241.502 165.287 237.328 175.017 231.978 184.109C226.629 193.201 220.104 201.495 212.404 208.992C204.703 216.489 196.314 222.869 187.236 228.133C178.158 233.396 168.269 237.543 157.57 240.574C146.871 243.605 135.847 245.08 124.5 245C113.071 245 102.088 243.525 91.5511 240.574C81.014 237.623 71.1253 233.516 61.8851 228.252C52.6448 222.988 44.2151 216.568 36.596 208.992C28.9769 201.415 22.4925 193.161 17.1429 184.229C11.7933 175.296 7.57843 165.567 4.49836 155.039C1.41828 144.512 -0.0812331 133.666 -0.00017841 122.5C-0.00017841 111.255 1.49933 100.449 4.49836 90.0808C7.49738 79.7129 11.6717 69.9831 17.0213 60.8913C22.3709 51.7995 28.8958 43.5052 36.596 36.0085C44.2962 28.5118 52.6854 22.1315 61.7635 16.8679C70.8416 11.6042 80.7303 7.45707 91.4295 4.42647C102.129 1.39587 113.152 -0.0795539 124.5 0.000198756ZM217.145 66.3942C216.011 64.6397 214.876 62.9649 213.741 61.3698C212.606 59.7748 211.431 58.1399 210.215 56.465C210.053 57.1828 209.85 57.7012 209.607 58.0202C209.364 58.3392 209.202 59.057 209.121 60.1735C209.121 60.8913 209.405 61.5692 209.972 62.2072C210.539 62.8453 211.269 63.4833 212.16 64.1213C213.052 64.7593 213.944 65.2378 214.835 65.5568C215.727 65.8759 216.497 66.155 217.145 66.3942ZM208.756 54.6706C208.756 55.3086 208.635 55.7473 208.391 55.9865H209.121C209.445 55.9865 209.688 56.0264 209.85 56.1062L208.756 54.6706ZM124.5 229.688C133.74 229.688 142.778 228.531 151.613 226.218C160.448 223.906 168.796 220.636 176.659 216.409C184.521 212.182 191.816 206.998 198.543 200.857C205.271 194.716 211.147 187.857 216.173 180.281C215.119 177.888 214.106 175.456 213.133 172.984C212.16 170.511 211.674 167.959 211.674 165.327C211.674 162.456 211.796 160.143 212.039 158.389C212.282 156.634 212.566 155.079 212.89 153.723C213.214 152.368 213.376 151.211 213.376 150.254C213.376 149.297 213.255 148.061 213.012 146.546C212.768 145.03 212.079 143.395 210.945 141.641C209.81 139.886 208.31 137.414 206.446 134.224C206.527 133.666 206.649 132.908 206.811 131.951C206.973 130.994 207.135 129.997 207.297 128.96C207.459 127.923 207.5 126.966 207.419 126.089C207.338 125.212 207.135 124.454 206.811 123.816C204.703 123.577 202.515 123.138 200.245 122.5C197.976 121.862 195.95 120.905 194.166 119.629L194.896 119.031C193.842 119.27 192.788 119.589 191.735 119.988C190.681 120.387 189.668 120.825 188.695 121.304C187.722 121.782 186.669 122.101 185.534 122.261C184.399 122.42 183.305 122.58 182.251 122.739L180.306 122.5L180.671 121.663C179.536 121.982 178.32 122.381 177.023 122.859C175.726 123.338 174.47 123.577 173.254 123.577C172.444 123.577 171.268 123.298 169.728 122.739C168.188 122.181 166.648 121.503 165.108 120.706C163.568 119.908 162.19 119.031 160.974 118.074C159.759 117.117 159.151 116.2 159.151 115.322L159.394 114.964C158.989 114.485 158.462 114.046 157.813 113.648C157.165 113.249 156.557 112.85 155.99 112.451C155.422 112.053 154.895 111.614 154.409 111.135C153.923 110.657 153.72 110.099 153.801 109.461L155.138 108.384L152.342 108.025L151.369 104.436C151.532 104.835 151.896 104.995 152.464 104.915C153.031 104.835 153.477 104.675 153.801 104.436L149.424 102.163L152.464 94.507C151.329 90.3599 151.045 87.1698 151.613 84.9367C152.18 82.7037 153.274 80.8693 154.895 79.4338C156.516 77.9983 158.3 76.5627 160.245 75.1272C162.19 73.6916 164.176 71.7377 166.202 69.2653L165.838 67.8298L173.862 58.2595L175.686 58.0202C177.955 58.0202 180.509 57.9405 183.346 57.781C186.182 57.6215 189.06 57.3423 191.978 56.9436C194.896 56.5448 197.773 56.146 200.61 55.7473C203.447 55.3485 206.041 54.8301 208.391 54.1921C205.798 51.1615 203.082 48.2904 200.245 45.5788C197.408 42.8672 194.369 40.2753 191.127 37.8029C190.235 38.1219 189.141 38.5606 187.844 39.1189C186.547 39.6771 185.25 40.3949 183.953 41.2722C182.657 42.1495 181.643 43.1065 180.914 44.1433C180.184 45.18 179.739 46.2567 179.576 47.3732L180.306 49.6462C178.847 51.959 177.226 53.3946 175.443 53.9528C173.659 54.5111 171.836 54.8301 169.971 54.9099C168.107 54.9896 166.162 54.9896 164.136 54.9099C162.109 54.8301 160.164 55.189 158.3 55.9865L156.354 51.9191L158.178 44.9807L156.111 41.9899L177.145 35.53C176.253 33.2969 174.794 31.6221 172.768 30.5056C170.742 29.389 168.513 28.8308 166.081 28.8308V27.6345L172.889 26.5578C165.351 22.8892 157.53 20.0979 149.424 18.1838C141.319 16.2697 133.011 15.3127 124.5 15.3127C117.448 15.3127 110.477 15.9906 103.588 17.3464C96.6981 18.7022 90.0516 20.6561 83.6483 23.2082C77.2449 25.7603 71.0443 28.9504 65.0462 32.7785C59.0482 36.6066 53.577 40.9133 48.6326 45.6984C50.7401 45.6984 52.3611 46.2168 53.4959 47.2536C54.6307 48.2904 55.6844 49.4468 56.657 50.7229C57.6297 51.9989 58.6429 53.1553 59.6966 54.1921C60.7503 55.2289 62.1688 55.7871 63.952 55.8669L65.8973 54.4314L65.6541 51.7995L69.6663 46.177L66.5052 37.3244C66.9105 37.0852 67.5184 36.6864 68.3289 36.1281C69.1395 35.5699 69.8284 35.2907 70.3958 35.2907C72.8275 35.2907 74.6917 35.4104 75.9886 35.6496C77.2855 35.8889 78.4202 36.3275 79.3929 36.9655C80.3655 37.6036 81.2166 38.5207 81.9461 39.717C82.6756 40.9133 83.8104 42.4286 85.3504 44.2629L89.7274 40.9133C90.5379 41.2323 91.8348 41.7507 93.618 42.4685C95.4012 43.1862 97.2249 44.0635 99.0892 45.1003C100.953 46.1371 102.534 47.2137 103.831 48.3303C105.128 49.4468 105.817 50.4836 105.898 51.4406C105.898 52.6369 105.452 53.594 104.56 54.3117C103.669 55.0295 102.493 55.6276 101.034 56.1062C99.5755 56.5847 98.076 56.9436 96.5359 57.1828C94.9959 57.4221 93.4559 57.7411 91.9158 58.1399C90.3758 58.5386 89.2005 58.9374 88.39 59.3361C87.5794 59.7349 87.0931 60.4128 86.931 61.3698L93.9827 63.6428C92.3616 64.9986 90.619 66.2347 88.7547 67.3513C86.8904 68.4678 84.9451 69.5046 82.9188 70.4616L83.4051 72.4953L72.2195 76.802V80.1516L71.3685 80.5105L71.9764 76.3234L71.4901 76.2038C70.9227 76.2038 70.5984 76.3234 70.5174 76.5627C70.4363 76.802 70.3958 77.0811 70.3958 77.4001C70.3958 77.7191 70.4769 78.0381 70.639 78.3571C70.8011 78.6761 70.8416 78.9154 70.7606 79.0749L69.18 78.2375L69.4232 78.716C69.4232 78.9553 69.5447 79.3142 69.7879 79.7927C70.0311 80.2712 70.3553 80.7098 70.7606 81.1086C71.1658 81.5074 71.4901 81.9061 71.7332 82.3049C71.9764 82.7037 72.1385 82.903 72.2195 82.903C72.2195 83.1423 72.0574 83.3816 71.7332 83.6208C71.409 83.8601 71.0037 84.0196 70.5174 84.0993C70.0311 84.1791 69.7068 84.2987 69.5447 84.4582C69.3826 84.6177 69.3826 84.6576 69.5447 84.5778C70.6795 84.5778 70.9227 84.6576 70.2742 84.8171C69.6258 84.9766 68.6126 85.3754 67.2347 86.0134C65.8568 86.6514 64.6004 87.5686 63.4656 88.7649C62.3309 89.9611 61.6824 91.7157 61.5203 94.0285C61.5203 95.3843 61.5609 96.7002 61.6419 97.9763C61.723 99.2523 61.6824 100.568 61.5203 101.924C60.3856 98.8934 58.6834 96.5806 56.4139 94.9856C54.1443 93.3905 51.3885 92.593 48.1463 92.593L42.9183 93.0715L45.4715 94.7463C44.0936 94.5868 42.6751 94.4273 41.2161 94.2678C39.7571 94.1083 38.2576 94.0684 36.7176 94.1482C35.1776 94.2279 33.7996 94.5469 32.5838 95.1052C31.368 95.6635 30.1522 96.5009 28.9363 97.6174L28.2069 103.001C28.2069 105.553 28.7742 107.626 29.909 109.221C31.0438 110.816 33.0296 111.654 35.8665 111.734C38.2982 111.734 40.6893 111.375 43.0399 110.657C45.3904 109.939 47.7005 109.102 49.97 108.145C49.2405 109.899 48.43 111.574 47.5384 113.169C46.6468 114.764 45.9984 116.519 45.5931 118.433L47.1736 119.151C49.119 117.875 50.9022 117.675 52.5233 118.552C54.1443 119.43 55.7249 120.706 57.265 122.381C58.805 124.055 60.3856 125.77 62.0067 127.525C63.6277 129.279 65.3704 130.555 67.2347 131.353L63.1009 133.506L53.3743 128.123C53.4554 128.282 53.5364 128.641 53.6175 129.199C53.6985 129.758 53.658 129.877 53.4959 129.558L49.119 122.261C46.5252 122.181 43.7693 121.782 40.8514 121.065C37.9334 120.347 34.9749 119.39 31.9759 118.194C28.9769 116.997 26.1805 115.681 23.5867 114.246C20.993 112.81 18.6019 111.295 16.4134 109.7L15.5623 122.5C15.5623 132.23 16.8997 141.721 19.5745 150.972C22.2493 160.223 26.0184 168.916 30.8817 177.051C35.7449 185.186 41.7025 192.603 48.7542 199.302C55.806 206.001 63.6277 211.704 72.2195 216.409C71.8143 214.734 71.7737 213.059 72.098 211.384C72.4222 209.71 72.8275 208.035 73.3138 206.36C73.8001 204.685 74.327 203.01 74.8943 201.336C75.4617 199.661 75.7454 197.946 75.7454 196.192C75.7454 193.64 75.3401 190.968 74.5296 188.176C73.7191 185.385 72.7464 182.554 71.6116 179.683C70.4769 176.812 69.2205 173.981 67.8426 171.189C66.4647 168.398 65.3704 165.766 64.5599 163.294C63.7493 160.821 63.1009 158.509 62.6146 156.355C62.1282 154.202 62.3714 152.328 63.3441 150.733L61.5203 149.895C62.0067 148.779 62.6551 147.702 63.4656 146.665C64.2762 145.628 65.1273 144.592 66.0189 143.555C66.9105 142.518 67.5994 141.402 68.0858 140.205C68.5721 139.009 68.8558 137.813 68.9368 136.616C68.9368 135.819 68.7747 134.981 68.4505 134.104C68.1263 133.227 67.8426 132.39 67.5994 131.592L70.1526 132.19C71.5306 129.08 73.3948 126.966 75.7454 125.85C78.096 124.733 81.0545 124.135 84.6209 124.055C85.0262 124.055 85.8773 124.215 87.1741 124.534C88.471 124.853 89.8489 125.292 91.3079 125.85C92.7669 126.408 94.1448 126.847 95.4417 127.166C96.7386 127.485 97.7112 127.804 98.3597 128.123C98.3597 128.681 98.6839 129.04 99.3323 129.199C99.9808 129.359 100.346 129.638 100.427 130.037L100.183 130.994C100.427 131.074 100.994 131.353 101.886 131.831C102.777 132.31 103.75 132.908 104.804 133.626C105.857 134.343 106.789 134.981 107.6 135.54C108.41 136.098 108.978 136.537 109.302 136.856C110.761 136.856 112.747 137.334 115.26 138.291C117.772 139.248 120.528 140.445 123.527 141.88C126.526 143.316 129.485 145.03 132.403 147.024C135.321 149.018 138.076 151.012 140.67 153.006C143.264 154.999 145.25 156.993 146.628 158.987C148.006 160.981 148.816 162.735 149.059 164.251L144.926 168.557C145.25 172.625 144.966 175.735 144.075 177.888C143.183 180.042 141.805 181.836 139.941 183.272C138.076 184.707 135.929 185.904 133.497 186.861C131.065 187.818 128.431 189.173 125.594 190.928C125.594 192.523 125.189 194.238 124.378 196.072C123.568 197.906 122.555 199.661 121.339 201.336C120.123 203.01 118.664 204.406 116.962 205.523C115.26 206.639 113.557 207.197 111.855 207.197L106.749 203.369C106.911 203.529 106.911 203.808 106.749 204.207C106.587 204.606 106.384 204.685 106.141 204.446C106.951 205.961 107.154 207.716 106.749 209.71C106.344 211.704 105.655 213.737 104.682 215.811C103.709 217.884 102.615 219.838 101.399 221.673C100.183 223.507 99.0892 225.062 98.1165 226.338C102.493 227.455 106.87 228.292 111.247 228.85C115.624 229.409 120.042 229.688 124.5 229.688Z" fill="black"/>
</g>
<defs>
<clipPath id="clip0_30_171">
<rect width="249" height="245" fill="white"/>
</clipPath>
</defs>
</svg>
