<svg width="120" height="81" viewBox="0 0 120 81" fill="none" xmlns="http://www.w3.org/2000/svg">
<path d="M115.443 35.1045H120V45.8955H115.443V35.1045ZM106.462 49.055H111.019V31.945H106.462V49.055ZM97.632 57.905H102.189V23.095H97.632V57.905ZM89.238 64.7341H93.7954V16.5845H89.238V64.7225V64.7341ZM80.2516 52.9756H84.809V28.0244H80.2516V52.9756ZM71.1227 71.8555H75.6801V8.07677H71.1083V71.8555H71.1227ZM62.1391 81H66.6965V0H62.1391V81ZM53.3092 68.495H57.8666V12.5047H53.3092V68.4953V68.495ZM44.1746 52.5949H48.732V28.9947H44.1746V52.5949ZM35.345 46.9689H39.9023V34.0103H35.345V46.9903V46.9689ZM26.515 53.9017H31.0724V27.0891H26.515V53.9104V53.9017ZM17.8276 66.8812H22.385V12.5844H17.8278V66.8907L17.8276 66.8812ZM8.99791 58.5861H13.5553V21.9475H8.99791V58.5953V58.5861ZM0 49.055H4.55739V31.945H0V49.055Z" fill="black"/>
</svg>
